<svg width="48" height="49" viewBox="0 0 48 49" fill="none" xmlns="http://www.w3.org/2000/svg">
<mask id="mask0_56_1070" style="mask-type:alpha" maskUnits="userSpaceOnUse" x="0" y="0" width="48" height="49">
<rect y="0.699219" width="48" height="48" fill="#D9D9D9"/>
</mask>
<g mask="url(#mask0_56_1070)">
<path d="M18.1498 33.1993L23.9998 29.6493L29.8498 33.1993L28.2998 26.5493L33.4998 22.0493L26.6498 21.4993L23.9998 15.1993L21.3498 21.4993L14.4998 22.0493L19.6998 26.5493L18.1498 33.1993ZM24.0498 47.2493L17.2998 40.6993H7.9998V31.3993L1.2998 24.6993L7.9998 17.9993V8.69927H17.2998L24.0498 1.99927L30.6998 8.69927H39.9998V17.9993L46.6998 24.6993L39.9998 31.3993V40.6993H30.6998L24.0498 47.2493ZM24.0498 43.0493L29.4458 37.6993H36.9998V30.1493L42.4498 24.6993L36.9998 19.2493V11.6993H29.4498L24.0498 6.24927L18.5498 11.6993H10.9998V19.2493L5.5498 24.6993L10.9998 30.1493V37.6993H18.4998L24.0498 43.0493Z" fill="black"/>
</g>
</svg>
