<svg width="30" height="41" viewBox="0 0 30 41" fill="none" xmlns="http://www.w3.org/2000/svg">
<path d="M15 40.6992C14.1 40.6992 13.3083 40.4826 12.625 40.0492C11.9417 39.6159 11.5 39.0159 11.3 38.2492H10.6C9.8 38.2492 9.1 37.9492 8.5 37.3492C7.9 36.7492 7.6 36.0492 7.6 35.2492V28.0992C5.4 26.6659 3.66667 24.8326 2.4 22.5992C1.13333 20.3659 0.5 17.8992 0.5 15.1992C0.5 11.1659 1.90833 7.74089 4.725 4.92422C7.54167 2.10755 10.9667 0.699219 15 0.699219C19.0333 0.699219 22.4583 2.10755 25.275 4.92422C28.0917 7.74089 29.5 11.1659 29.5 15.1992C29.5 17.8992 28.8667 20.3659 27.6 22.5992C26.3333 24.8326 24.6 26.6659 22.4 28.0992V35.2492C22.4 36.0492 22.1 36.7492 21.5 37.3492C20.9 37.9492 20.2 38.2492 19.4 38.2492H18.7C18.5 39.0159 18.0583 39.6159 17.375 40.0492C16.6917 40.4826 15.9 40.6992 15 40.6992ZM10.6 35.2492H19.4V33.0492H10.6V35.2492ZM10.6 31.0492H19.4V29.0492H10.6V31.0492ZM10.15 26.0492H13.85V19.1992L9.25 14.5992L10.8 13.0492L15 17.2492L19.2 13.0492L20.75 14.5992L16.15 19.1992V26.0492H19.85C21.85 25.1159 23.4583 23.6659 24.675 21.6992C25.8917 19.7326 26.5 17.5659 26.5 15.1992C26.5 11.9659 25.3917 9.24089 23.175 7.02422C20.9583 4.80755 18.2333 3.69922 15 3.69922C11.7667 3.69922 9.04167 4.80755 6.825 7.02422C4.60833 9.24089 3.5 11.9659 3.5 15.1992C3.5 17.5659 4.10833 19.7326 5.325 21.6992C6.54167 23.6659 8.15 25.1159 10.15 26.0492Z" fill="black"/>
</svg>
