<svg width="36" height="37" viewBox="0 0 36 37" fill="none" xmlns="http://www.w3.org/2000/svg">
<mask id="mask0_56_2590" style="mask-type:alpha" maskUnits="userSpaceOnUse" x="0" y="0" width="36" height="37">
<rect y="0.599365" width="36" height="36" fill="#D9D9D9"/>
</mask>
<g mask="url(#mask0_56_2590)">
<path d="M15.7875 25.4244L26.4 14.8119L24.675 13.1244L15.7875 22.0119L11.2875 17.5119L9.6 19.1994L15.7875 25.4244ZM18 33.5994C15.95 33.5994 14.0125 33.2056 12.1875 32.4181C10.3625 31.6306 8.76875 30.5556 7.40625 29.1931C6.04375 27.8306 4.96875 26.2369 4.18125 24.4119C3.39375 22.5869 3 20.6494 3 18.5994C3 16.5244 3.39375 14.5744 4.18125 12.7494C4.96875 10.9244 6.04375 9.33687 7.40625 7.98687C8.76875 6.63687 10.3625 5.56812 12.1875 4.78062C14.0125 3.99312 15.95 3.59937 18 3.59937C20.075 3.59937 22.025 3.99312 23.85 4.78062C25.675 5.56812 27.2625 6.63687 28.6125 7.98687C29.9625 9.33687 31.0312 10.9244 31.8187 12.7494C32.6062 14.5744 33 16.5244 33 18.5994C33 20.6494 32.6062 22.5869 31.8187 24.4119C31.0312 26.2369 29.9625 27.8306 28.6125 29.1931C27.2625 30.5556 25.675 31.6306 23.85 32.4181C22.025 33.2056 20.075 33.5994 18 33.5994ZM18 31.3494C21.55 31.3494 24.5625 30.1056 27.0375 27.6181C29.5125 25.1306 30.75 22.1244 30.75 18.5994C30.75 15.0494 29.5125 12.0369 27.0375 9.56187C24.5625 7.08687 21.55 5.84937 18 5.84937C14.475 5.84937 11.4688 7.08687 8.98125 9.56187C6.49375 12.0369 5.25 15.0494 5.25 18.5994C5.25 22.1244 6.49375 25.1306 8.98125 27.6181C11.4688 30.1056 14.475 31.3494 18 31.3494Z" fill="#1C1B1F"/>
</g>
</svg>
