<svg width="44" height="33" viewBox="0 0 44 33" fill="none" xmlns="http://www.w3.org/2000/svg">
<path d="M0 32.6992V27.0992C0 25.9659 0.291667 24.9242 0.875 23.9742C1.45833 23.0242 2.23333 22.2992 3.2 21.7992C5.26667 20.7659 7.36667 19.9909 9.5 19.4742C11.6333 18.9576 13.8 18.6992 16 18.6992C18.2 18.6992 20.3667 18.9576 22.5 19.4742C24.6333 19.9909 26.7333 20.7659 28.8 21.7992C29.7667 22.2992 30.5417 23.0242 31.125 23.9742C31.7083 24.9242 32 25.9659 32 27.0992V32.6992H0ZM36 32.6992V26.6992C36 25.2326 35.5917 23.8242 34.775 22.4742C33.9583 21.1242 32.8 19.9659 31.3 18.9992C33 19.1992 34.6 19.5409 36.1 20.0242C37.6 20.5076 39 21.0992 40.3 21.7992C41.5 22.4659 42.4167 23.2076 43.05 24.0242C43.6833 24.8409 44 25.7326 44 26.6992V32.6992H36ZM16 16.6992C13.8 16.6992 11.9167 15.9159 10.35 14.3492C8.78333 12.7826 8 10.8992 8 8.69922C8 6.49922 8.78333 4.61589 10.35 3.04922C11.9167 1.48255 13.8 0.699219 16 0.699219C18.2 0.699219 20.0833 1.48255 21.65 3.04922C23.2167 4.61589 24 6.49922 24 8.69922C24 10.8992 23.2167 12.7826 21.65 14.3492C20.0833 15.9159 18.2 16.6992 16 16.6992ZM36 8.69922C36 10.8992 35.2167 12.7826 33.65 14.3492C32.0833 15.9159 30.2 16.6992 28 16.6992C27.6333 16.6992 27.1667 16.6576 26.6 16.5742C26.0333 16.4909 25.5667 16.3992 25.2 16.2992C26.1 15.2326 26.7917 14.0492 27.275 12.7492C27.7583 11.4492 28 10.0992 28 8.69922C28 7.29922 27.7583 5.94922 27.275 4.64922C26.7917 3.34922 26.1 2.16589 25.2 1.09922C25.6667 0.932552 26.1333 0.824219 26.6 0.774219C27.0667 0.724219 27.5333 0.699219 28 0.699219C30.2 0.699219 32.0833 1.48255 33.65 3.04922C35.2167 4.61589 36 6.49922 36 8.69922ZM4 28.6992H28V27.0992C28 26.7326 27.9083 26.3992 27.725 26.0992C27.5417 25.7992 27.3 25.5659 27 25.3992C25.2 24.4992 23.3833 23.8242 21.55 23.3742C19.7167 22.9242 17.8667 22.6992 16 22.6992C14.1333 22.6992 12.2833 22.9242 10.45 23.3742C8.61667 23.8242 6.8 24.4992 5 25.3992C4.7 25.5659 4.45833 25.7992 4.275 26.0992C4.09167 26.3992 4 26.7326 4 27.0992V28.6992ZM16 12.6992C17.1 12.6992 18.0417 12.3076 18.825 11.5242C19.6083 10.7409 20 9.79922 20 8.69922C20 7.59922 19.6083 6.65755 18.825 5.87422C18.0417 5.09089 17.1 4.69922 16 4.69922C14.9 4.69922 13.9583 5.09089 13.175 5.87422C12.3917 6.65755 12 7.59922 12 8.69922C12 9.79922 12.3917 10.7409 13.175 11.5242C13.9583 12.3076 14.9 12.6992 16 12.6992Z" fill="black"/>
</svg>
