<svg
  width="149"
  height="48"
  viewBox="0 0 149 48"
  fill="currentColor"
  xmlns="http://www.w3.org/2000/svg"
  alt="Rote Robben GmbH - Innovation with Impact"
>
  <mask
    id="mask0_56_3445"
    style="mask-type: luminance"
    maskUnits="userSpaceOnUse"
    x="0"
    y="0"
    width="149"
    height="48"
  >
    <path d="M149 0.397949H0V47.4028H149V0.397949Z" fill="white" />
  </mask>
  <g mask="url(#mask0_56_3445)">
    <path
      d="M59.2974 47.0678H58.6318V42.3594H59.2974V47.0678Z"
      fill="currentColor"
    />
    <path
      d="M63.946 46.1235H63.9594V42.3594H64.6251V47.0678H63.7846L61.27 43.224H61.2565V47.0678H60.5908V42.3594H61.4583L63.946 46.1235Z"
      fill="currentColor"
    />
    <path
      d="M69.2751 46.1235H69.2885V42.3594H69.9541V47.0678H69.1137L66.5991 43.224H66.5856V47.0678H65.9199V42.3594H66.7872L69.2751 46.1235Z"
      fill="currentColor"
    />
    <path
      d="M76.0486 44.707C76.0486 45.0706 75.9836 45.4053 75.8536 45.7112C75.7281 46.0127 75.5533 46.2743 75.3292 46.496C75.105 46.7133 74.8383 46.884 74.529 47.0081C74.2197 47.1278 73.8835 47.1876 73.5205 47.1876C73.1574 47.1876 72.8213 47.1278 72.512 47.0081C72.2071 46.884 71.9427 46.7133 71.7186 46.496C71.4944 46.2743 71.3197 46.0127 71.1941 45.7112C71.0686 45.4053 71.0059 45.0706 71.0059 44.707C71.0059 44.339 71.0686 44.0043 71.1941 43.7028C71.3197 43.3969 71.4944 43.1376 71.7186 42.9247C71.9427 42.7075 72.2071 42.539 72.512 42.4193C72.8213 42.2996 73.1574 42.2397 73.5205 42.2397C73.8835 42.2397 74.2197 42.2996 74.529 42.4193C74.8383 42.539 75.105 42.7075 75.3292 42.9247C75.5533 43.1376 75.7281 43.3969 75.8536 43.7028C75.9836 44.0043 76.0486 44.339 76.0486 44.707ZM75.3292 44.707C75.3292 44.4498 75.2866 44.2082 75.2014 43.9822C75.1162 43.7516 74.9952 43.5499 74.8383 43.377C74.6815 43.204 74.491 43.0688 74.2669 42.9713C74.0472 42.8693 73.7985 42.8183 73.5205 42.8183C73.2471 42.8183 72.9983 42.8693 72.7742 42.9713C72.5545 43.0688 72.3662 43.204 72.2094 43.377C72.057 43.5499 71.9382 43.7516 71.8531 43.9822C71.7679 44.2082 71.7253 44.4498 71.7253 44.707C71.7253 44.9686 71.7679 45.2147 71.8531 45.4452C71.9382 45.6757 72.0592 45.8775 72.2161 46.0504C72.373 46.2189 72.5613 46.3519 72.781 46.4494C73.0005 46.547 73.2471 46.5957 73.5205 46.5957C73.7939 46.5957 74.0427 46.547 74.2669 46.4494C74.491 46.3519 74.6815 46.2189 74.8383 46.0504C74.9952 45.8775 75.1162 45.6757 75.2014 45.4452C75.2866 45.2147 75.3292 44.9686 75.3292 44.707Z"
      fill="currentColor"
    />
    <path
      d="M78.5897 46.2166H78.6099L80.0421 42.3594H80.7615L78.8922 47.0678H78.2737L76.418 42.3594H77.1576L78.5897 46.2166Z"
      fill="currentColor"
    />
    <path
      d="M81.4495 47.0678H80.71L82.7741 42.3594H83.3793L85.4232 47.0678H84.6701L84.186 45.9107H81.9269L81.4495 47.0678ZM82.1622 45.3321H83.944L83.0565 43.1241L82.1622 45.3321Z"
      fill="currentColor"
    />
    <path
      d="M87.436 47.0678H86.7704V42.938H85.2441V42.3594H88.9623V42.938H87.436V47.0678Z"
      fill="currentColor"
    />
    <path
      d="M90.3962 47.0678H89.7305V42.3594H90.3962V47.0678Z"
      fill="currentColor"
    />
    <path
      d="M96.491 44.707C96.491 45.0706 96.4259 45.4053 96.296 45.7112C96.1704 46.0127 95.9956 46.2743 95.7715 46.496C95.5474 46.7133 95.2807 46.884 94.9714 47.0081C94.6621 47.1278 94.3259 47.1876 93.9628 47.1876C93.5998 47.1876 93.2636 47.1278 92.9543 47.0081C92.6495 46.884 92.3851 46.7133 92.1609 46.496C91.9368 46.2743 91.7619 46.0127 91.6365 45.7112C91.511 45.4053 91.4482 45.0706 91.4482 44.707C91.4482 44.339 91.511 44.0043 91.6365 43.7028C91.7619 43.3969 91.9368 43.1376 92.1609 42.9247C92.3851 42.7075 92.6495 42.539 92.9543 42.4193C93.2636 42.2996 93.5998 42.2397 93.9628 42.2397C94.3259 42.2397 94.6621 42.2996 94.9714 42.4193C95.2807 42.539 95.5474 42.7075 95.7715 42.9247C95.9956 43.1376 96.1704 43.3969 96.296 43.7028C96.4259 44.0043 96.491 44.339 96.491 44.707ZM95.7715 44.707C95.7715 44.4498 95.7289 44.2082 95.6438 43.9822C95.5586 43.7516 95.4376 43.5499 95.2807 43.377C95.1238 43.204 94.9333 43.0688 94.7091 42.9713C94.4896 42.8693 94.2407 42.8183 93.9628 42.8183C93.6894 42.8183 93.4406 42.8693 93.2166 42.9713C92.9969 43.0688 92.8086 43.204 92.6517 43.377C92.4993 43.5499 92.3805 43.7516 92.2953 43.9822C92.2102 44.2082 92.1676 44.4498 92.1676 44.707C92.1676 44.9686 92.2102 45.2147 92.2953 45.4452C92.3805 45.6757 92.5016 45.8775 92.6584 46.0504C92.8154 46.2189 93.0036 46.3519 93.2232 46.4494C93.4429 46.547 93.6894 46.5957 93.9628 46.5957C94.2363 46.5957 94.485 46.547 94.7091 46.4494C94.9333 46.3519 95.1238 46.2189 95.2807 46.0504C95.4376 45.8775 95.5586 45.6757 95.6438 45.4452C95.7289 45.2147 95.7715 44.9686 95.7715 44.707Z"
      fill="currentColor"
    />
    <path
      d="M100.886 46.1235H100.9V42.3594H101.565V47.0678H100.725L98.2103 43.224H98.1969V47.0678H97.5312V42.3594H98.3986L100.886 46.1235Z"
      fill="currentColor"
    />
    <path
      d="M105.853 46.1102H105.867L106.983 42.3594H107.715L108.826 46.1102H108.839L109.887 42.3594H110.593L109.195 47.0678H108.503L107.346 43.2838H107.333L106.176 47.0678H105.484L104.085 42.3594H104.804L105.853 46.1102Z"
      fill="currentColor"
    />
    <path
      d="M112.041 47.0678H111.375V42.3594H112.041V47.0678Z"
      fill="currentColor"
    />
    <path
      d="M115.003 47.0678H114.337V42.938H112.811V42.3594H116.529V42.938H115.003V47.0678Z"
      fill="currentColor"
    />
    <path
      d="M117.298 42.3594H117.964V44.3279H120.37V42.3594H121.043V47.0678H120.37V44.9131H117.964V47.0678H117.298V42.3594Z"
      fill="currentColor"
    />
    <path
      d="M124.811 47.0678H124.146V42.3594H124.811V47.0678Z"
      fill="currentColor"
    />
    <path
      d="M128.567 45.9771H128.58L129.985 42.3594H131.021V47.0678H130.355V43.1308H130.342L128.762 47.0678H128.338L126.765 43.1308H126.751V47.0678H126.105V42.3594H127.141L128.567 45.9771Z"
      fill="currentColor"
    />
    <path
      d="M132.313 42.3594H133.766C134.021 42.3594 134.254 42.3859 134.465 42.4392C134.676 42.4879 134.855 42.5656 135.003 42.672C135.15 42.7783 135.265 42.9135 135.346 43.0776C135.427 43.2416 135.467 43.439 135.467 43.6695C135.467 43.9045 135.421 44.1062 135.332 44.2746C135.247 44.4432 135.126 44.5805 134.97 44.687C134.817 44.7934 134.633 44.8732 134.418 44.9264C134.207 44.9752 133.979 44.9996 133.732 44.9996H132.979V47.0678H132.313V42.3594ZM132.979 44.4409H133.685C133.847 44.4409 133.994 44.4276 134.128 44.401C134.268 44.37 134.387 44.3256 134.486 44.2681C134.583 44.2059 134.66 44.1262 134.714 44.0286C134.767 43.9311 134.794 43.8114 134.794 43.6695C134.794 43.5276 134.765 43.4102 134.707 43.317C134.653 43.2194 134.577 43.1419 134.478 43.0842C134.384 43.0222 134.27 42.9801 134.136 42.9579C134.001 42.9313 133.855 42.9179 133.698 42.9179H132.979V44.4409Z"
      fill="currentColor"
    />
    <path
      d="M136.241 47.0678H135.501L137.565 42.3594H138.171L140.215 47.0678H139.462L138.978 45.9107H136.719L136.241 47.0678ZM136.953 45.3321H138.736L137.848 43.1241L136.953 45.3321Z"
      fill="currentColor"
    />
    <path
      d="M144.924 46.3364C144.736 46.589 144.492 46.7952 144.191 46.9549C143.89 47.1101 143.53 47.1876 143.108 47.1876C142.746 47.1876 142.409 47.1278 142.1 47.0081C141.795 46.884 141.531 46.7133 141.306 46.496C141.087 46.2743 140.915 46.0127 140.789 45.7112C140.663 45.4053 140.601 45.0706 140.601 44.707C140.601 44.339 140.663 44.0043 140.789 43.7028C140.919 43.3969 141.095 43.1376 141.32 42.9247C141.548 42.7075 141.817 42.539 142.127 42.4193C142.436 42.2996 142.773 42.2397 143.135 42.2397C143.297 42.2397 143.46 42.2552 143.626 42.2863C143.793 42.3173 143.952 42.3639 144.103 42.4259C144.256 42.488 144.395 42.5657 144.521 42.6587C144.646 42.7474 144.753 42.8516 144.844 42.9713L144.319 43.3703C144.202 43.2107 144.037 43.0799 143.822 42.9779C143.611 42.8716 143.382 42.8183 143.135 42.8183C142.858 42.8183 142.607 42.8693 142.382 42.9713C142.163 43.0688 141.974 43.204 141.817 43.377C141.66 43.5499 141.54 43.7516 141.455 43.9822C141.37 44.2082 141.327 44.4498 141.327 44.707C141.327 44.973 141.367 45.2214 141.447 45.4519C141.533 45.6824 141.652 45.8842 141.804 46.057C141.961 46.2256 142.15 46.3585 142.369 46.4561C142.593 46.5537 142.842 46.6024 143.115 46.6024C143.384 46.6024 143.629 46.5492 143.848 46.4428C144.068 46.3364 144.25 46.1812 144.393 45.9772L144.924 46.3364Z"
      fill="currentColor"
    />
    <path
      d="M147.365 47.0678H146.7V42.938H145.174V42.3594H148.892V42.938H147.365V47.0678Z"
      fill="currentColor"
    />
    <path
      d="M66.7435 16.0375L63.4515 9.99249H62.2036V16.0375H58.5889V0.806641H64.3983C65.1298 0.806641 65.8398 0.88552 66.5284 1.04328C67.2312 1.18669 67.8552 1.43767 68.4003 1.79622C68.9597 2.15475 69.4043 2.62803 69.7343 3.21604C70.0642 3.80406 70.2292 4.53548 70.2292 5.41032C70.2292 6.44292 69.9494 7.3106 69.39 8.01334C68.8306 8.71607 68.056 9.21804 67.0663 9.51921L71.0468 16.0375H66.7435ZM66.5929 5.47486C66.5929 5.11632 66.5141 4.82948 66.3562 4.61436C66.2128 4.38489 66.0192 4.21279 65.7753 4.09806C65.5458 3.96898 65.2804 3.88293 64.9792 3.83991C64.6923 3.79688 64.4126 3.77537 64.1401 3.77537H62.1821V7.32493H63.9249C64.2261 7.32493 64.5346 7.30342 64.8501 7.2604C65.1656 7.20303 65.4526 7.10981 65.7107 6.98073C65.9689 6.85166 66.1769 6.66522 66.3347 6.42141C66.5068 6.1776 66.5929 5.86208 66.5929 5.47486Z"
      fill="currentColor"
    />
    <path
      d="M89.1652 8.35758C89.1652 9.56229 88.9572 10.6666 88.5412 11.6705C88.1253 12.6601 87.5444 13.5134 86.7984 14.2305C86.0669 14.9332 85.1919 15.4782 84.1734 15.8655C83.1551 16.2527 82.0505 16.4463 80.8599 16.4463C79.6694 16.4463 78.5649 16.2527 77.5464 15.8655C76.5424 15.4782 75.6674 14.9332 74.9214 14.2305C74.1899 13.5134 73.6162 12.6601 73.2001 11.6705C72.7842 10.6666 72.5762 9.56229 72.5762 8.35758C72.5762 7.13855 72.7842 6.04141 73.2001 5.06617C73.6162 4.07659 74.1899 3.2376 74.9214 2.5492C75.6674 1.8608 76.5424 1.33016 77.5464 0.957275C78.5649 0.584391 79.6694 0.397949 80.8599 0.397949C82.0505 0.397949 83.1551 0.584391 84.1734 0.957275C85.1919 1.33016 86.0669 1.8608 86.7984 2.5492C87.5444 3.2376 88.1253 4.07659 88.5412 5.06617C88.9572 6.04141 89.1652 7.13855 89.1652 8.35758ZM85.2277 8.35758C85.2277 7.69787 85.1201 7.08117 84.905 6.50751C84.6898 5.93384 84.3886 5.44622 84.0013 5.04466C83.6284 4.62874 83.1694 4.30605 82.6243 4.07659C82.0936 3.83278 81.5054 3.71088 80.8599 3.71088C80.2144 3.71088 79.6264 3.83278 79.0956 4.07659C78.5649 4.30605 78.1058 4.62874 77.7186 5.04466C77.3313 5.44622 77.03 5.93384 76.8149 6.50751C76.6141 7.08117 76.5136 7.69787 76.5136 8.35758C76.5136 9.04599 76.6212 9.68419 76.8364 10.2722C77.0515 10.8459 77.3457 11.3406 77.7186 11.7566C78.1058 12.1725 78.5649 12.5023 79.0956 12.7461C79.6264 12.9756 80.2144 13.0903 80.8599 13.0903C81.5054 13.0903 82.0936 12.9756 82.6243 12.7461C83.1551 12.5023 83.614 12.1725 84.0013 11.7566C84.3886 11.3406 84.6898 10.8459 84.905 10.2722C85.1201 9.68419 85.2277 9.04599 85.2277 8.35758Z"
      fill="currentColor"
    />
    <path
      d="M97.8859 3.94747V16.0375H94.2066V3.94747H89.9033V0.806641H102.189V3.94747H97.8859Z"
      fill="currentColor"
    />
    <path
      d="M104.299 16.0375V0.806641H114.54V3.92596H107.849V6.78712H114.175V9.73434H107.849V12.8967H114.928V16.0375H104.299Z"
      fill="currentColor"
    />
    <path
      d="M66.7435 36.9047L63.4515 30.8597H62.2036V36.9047H58.5889V21.6738H64.3983C65.1298 21.6738 65.8398 21.7527 66.5284 21.9105C67.2312 22.0538 67.8552 22.3049 68.4003 22.6634C68.9597 23.0219 69.4043 23.4952 69.7343 24.0832C70.0642 24.6713 70.2292 25.4027 70.2292 26.2775C70.2292 27.3101 69.9494 28.1778 69.39 28.8805C68.8306 29.5832 68.056 30.0852 67.0663 30.3864L71.0468 36.9047H66.7435ZM66.5929 26.342C66.5929 25.9835 66.5141 25.6967 66.3562 25.4815C66.2128 25.2521 66.0192 25.08 65.7753 24.9652C65.5458 24.8362 65.2804 24.7501 64.9792 24.7071C64.6923 24.6641 64.4126 24.6426 64.1401 24.6426H62.1821V28.1921H63.9249C64.2261 28.1921 64.5346 28.1706 64.8501 28.1276C65.1656 28.0703 65.4526 27.977 65.7107 27.8479C65.9689 27.7188 66.1769 27.5324 66.3347 27.2886C66.5068 27.0448 66.5929 26.7293 66.5929 26.342Z"
      fill="currentColor"
    />
    <path
      d="M89.1652 29.2248C89.1652 30.4295 88.9572 31.5338 88.5412 32.5377C88.1253 33.5273 87.5444 34.3806 86.7984 35.0977C86.0669 35.8004 85.1919 36.3454 84.1734 36.7326C83.1551 37.1199 82.0505 37.3135 80.8599 37.3135C79.6694 37.3135 78.5649 37.1199 77.5464 36.7326C76.5424 36.3454 75.6674 35.8004 74.9214 35.0977C74.1899 34.3806 73.6162 33.5273 73.2001 32.5377C72.7842 31.5338 72.5762 30.4295 72.5762 29.2248C72.5762 28.0058 72.7842 26.9086 73.2001 25.9334C73.6162 24.9438 74.1899 24.1048 74.9214 23.4164C75.6674 22.728 76.5424 22.1974 77.5464 21.8245C78.5649 21.4515 79.6694 21.2651 80.8599 21.2651C82.0505 21.2651 83.1551 21.4515 84.1734 21.8245C85.1919 22.1974 86.0669 22.728 86.7984 23.4164C87.5444 24.1048 88.1253 24.9438 88.5412 25.9334C88.9572 26.9086 89.1652 28.0058 89.1652 29.2248ZM85.2277 29.2248C85.2277 28.5651 85.1201 27.9483 84.905 27.3747C84.6898 26.8011 84.3886 26.3134 84.0013 25.9118C83.6284 25.4959 83.1694 25.1732 82.6243 24.9438C82.0936 24.6999 81.5054 24.5781 80.8599 24.5781C80.2144 24.5781 79.6264 24.6999 79.0956 24.9438C78.5649 25.1732 78.1058 25.4959 77.7186 25.9118C77.3313 26.3134 77.03 26.8011 76.8149 27.3747C76.6141 27.9483 76.5136 28.5651 76.5136 29.2248C76.5136 29.9132 76.6212 30.5513 76.8364 31.1394C77.0515 31.713 77.3457 32.2078 77.7186 32.6238C78.1058 33.0397 78.5649 33.3695 79.0956 33.6133C79.6264 33.8428 80.2144 33.9575 80.8599 33.9575C81.5054 33.9575 82.0936 33.8428 82.6243 33.6133C83.1551 33.3695 83.614 33.0397 84.0013 32.6238C84.3886 32.2078 84.6898 31.713 84.905 31.1394C85.1201 30.5513 85.2277 29.9132 85.2277 29.2248Z"
      fill="currentColor"
    />
    <path
      d="M103.895 32.4731C103.895 33.3049 103.73 34.0077 103.4 34.5813C103.07 35.1407 102.632 35.5924 102.087 35.9366C101.542 36.2808 100.918 36.5318 100.215 36.6896C99.5268 36.833 98.8167 36.9047 98.0852 36.9047H92.0176V21.6738H98.0852C98.6733 21.6738 99.2758 21.7384 99.8925 21.8674C100.509 21.9822 101.069 22.1901 101.571 22.4913C102.073 22.7782 102.482 23.1725 102.797 23.6745C103.113 24.1765 103.271 24.8147 103.271 25.5891C103.271 26.4353 103.041 27.138 102.582 27.6973C102.123 28.2424 101.521 28.6367 100.775 28.8805V28.9236C101.205 28.9953 101.607 29.1315 101.98 29.3323C102.367 29.5187 102.697 29.7625 102.969 30.0637C103.256 30.3649 103.479 30.7163 103.636 31.1178C103.808 31.5194 103.895 31.9711 103.895 32.4731ZM99.7204 26.0839C99.7204 25.5676 99.5197 25.1947 99.1179 24.9652C98.7306 24.7214 98.1497 24.5995 97.3751 24.5995H95.5678V27.7404H97.5473C98.2358 27.7404 98.7666 27.6041 99.1395 27.3316C99.5268 27.0448 99.7204 26.6289 99.7204 26.0839ZM100.215 32.1289C100.215 31.4978 99.9786 31.0605 99.5052 30.8167C99.0319 30.5728 98.4008 30.4509 97.6118 30.4509H95.5678V33.936H97.6333C97.9202 33.936 98.2143 33.9145 98.5155 33.8714C98.8311 33.8141 99.1108 33.7208 99.3546 33.5918C99.6128 33.4627 99.8209 33.2834 99.9786 33.054C100.136 32.8101 100.215 32.5018 100.215 32.1289Z"
      fill="currentColor"
    />
    <path
      d="M118.634 32.4731C118.634 33.3049 118.469 34.0077 118.139 34.5813C117.81 35.1407 117.372 35.5924 116.826 35.9366C116.282 36.2808 115.658 36.5318 114.954 36.6896C114.266 36.833 113.556 36.9047 112.824 36.9047H106.757V21.6738H112.824C113.413 21.6738 114.015 21.7384 114.632 21.8674C115.249 21.9822 115.809 22.1901 116.31 22.4913C116.812 22.7782 117.221 23.1725 117.536 23.6745C117.853 24.1765 118.01 24.8147 118.01 25.5891C118.01 26.4353 117.78 27.138 117.321 27.6973C116.863 28.2424 116.26 28.6367 115.514 28.8805V28.9236C115.944 28.9953 116.346 29.1315 116.719 29.3323C117.106 29.5187 117.436 29.7625 117.708 30.0637C117.996 30.3649 118.218 30.7163 118.375 31.1178C118.548 31.5194 118.634 31.9711 118.634 32.4731ZM114.459 26.0839C114.459 25.5676 114.259 25.1947 113.857 24.9652C113.47 24.7214 112.889 24.5995 112.114 24.5995H110.307V27.7404H112.286C112.975 27.7404 113.506 27.6041 113.879 27.3316C114.266 27.0448 114.459 26.6289 114.459 26.0839ZM114.954 32.1289C114.954 31.4978 114.718 31.0605 114.244 30.8167C113.771 30.5728 113.14 30.4509 112.351 30.4509H110.307V33.936H112.372C112.66 33.936 112.953 33.9145 113.255 33.8714C113.571 33.8141 113.851 33.7208 114.094 33.5918C114.352 33.4627 114.561 33.2834 114.718 33.054C114.876 32.8101 114.954 32.5018 114.954 32.1289Z"
      fill="currentColor"
    />
    <path
      d="M121.496 36.9047V21.6738H131.738V24.7931H125.046V27.6543H131.372V30.6015H125.046V33.7639H132.125V36.9047H121.496Z"
      fill="currentColor"
    />
    <path
      d="M144.678 36.9047L138.546 26.9444H138.482L138.568 36.9047H134.996V21.6738H139.192L145.302 31.6126H145.367L145.281 21.6738H148.853V36.9047H144.678Z"
      fill="currentColor"
    />
    <path
      d="M47.5406 36.7863H12.8994L47.5406 2.15112V36.7863Z"
      fill="currentColor"
    />
    <path
      d="M34.3036 11.4804L22.9893 0.167969H45.618L34.3036 11.4804Z"
      fill="currentColor"
    />
    <path
      d="M10.8838 34.8965L-0.430664 23.584H22.1981L10.8838 34.8965Z"
      fill="currentColor"
    />
    <path
      d="M22.1982 23.5841L10.8838 34.8966V12.2717L22.1982 23.5841Z"
      fill="currentColor"
    />
  </g>
</svg>
