<svg width="48" height="49" viewBox="0 0 48 49" fill="none" xmlns="http://www.w3.org/2000/svg"> <mask id="mask0_56_5807" style="mask-type:alpha" maskUnits="userSpaceOnUse" x="0" y="0" width="48" height="49"> <rect y="0.699219" width="48" height="48" fill="#D9D9D9"/> </mask> <g mask="url(#mask0_56_5807)"> <path d="M38.2 44.6992C38 44.6992 37.8167 44.6659 37.65 44.5992C37.4833 44.5326 37.3167 44.4159 37.15 44.2492L25.05 32.1492C24.8833 31.9826 24.7667 31.8159 24.7 31.6492C24.6333 31.4826 24.6 31.2992 24.6 31.0992C24.6 30.8992 24.6333 30.7159 24.7 30.5492C24.7667 30.3826 24.8833 30.2159 25.05 30.0492L29.3 25.7992C29.4667 25.6326 29.6333 25.5159 29.8 25.4492C29.9667 25.3826 30.15 25.3492 30.35 25.3492C30.55 25.3492 30.7333 25.3826 30.9 25.4492C31.0667 25.5159 31.2333 25.6326 31.4 25.7992L43.5 37.8992C43.6667 38.0659 43.7833 38.2326 43.85 38.3992C43.9167 38.5659 43.95 38.7492 43.95 38.9492C43.95 39.1492 43.9167 39.3326 43.85 39.4992C43.7833 39.6659 43.6667 39.8326 43.5 39.9992L39.25 44.2492C39.0833 44.4159 38.9167 44.5326 38.75 44.5992C38.5833 44.6659 38.4 44.6992 38.2 44.6992ZM38.2 41.0992L40.35 38.9492L30.35 28.9492L28.2 31.0992L38.2 41.0992ZM9.75 44.6992C9.55 44.6992 9.35833 44.6659 9.175 44.5992C8.99167 44.5326 8.81667 44.4159 8.65 44.2492L4.45 40.0492C4.28333 39.8826 4.16667 39.7076 4.1 39.5242C4.03333 39.3409 4 39.1492 4 38.9492C4 38.7492 4.03333 38.5659 4.1 38.3992C4.16667 38.2326 4.28333 38.0659 4.45 37.8992L15.7 26.6492H19.95L21.85 24.7492L13.1 15.9992H10.25L4 9.74922L8.95 4.79922L15.2 11.0492V13.8992L23.95 22.6492L30.45 16.1492L27.1 12.7992L29.9 9.99922H24.25L23.35 9.09922L29.75 2.69922L30.65 3.59922V9.24922L33.45 6.44922L41.9 14.8992C42.4 15.3992 42.7917 15.9742 43.075 16.6242C43.3583 17.2742 43.5 17.9659 43.5 18.6992C43.5 19.3659 43.3917 20.0076 43.175 20.6242C42.9583 21.2409 42.65 21.7992 42.25 22.2992L38 18.0492L35.2 20.8492L32.6 18.2492L22.05 28.7992V32.9992L10.8 44.2492C10.6333 44.4159 10.4667 44.5326 10.3 44.5992C10.1333 44.6659 9.95 44.6992 9.75 44.6992ZM9.75 41.0992L19.75 31.0992V28.9492H17.6L7.6 38.9492L9.75 41.0992ZM9.75 41.0992L7.6 38.9492L8.7 39.9992L9.75 41.0992Z" fill="black"/> </g> </svg>
